# xmcd
#
# Track frame offsets:
#	150
#	15160
#	30809
#	42314
#	58053
#	69942
#	85630
#	98665
#	111694
#	125957
#	139584
#	153048
#	168271
#	184968
#	200113
#	211246
#	223323
#	236090
#	250504
#	264785
#
# Disc length: 3755 seconds
#
# Revision: 0
# Processed by: cddbd v1.4PL0 Copyright (c) Steve Scherf et al.
# Submitted via: audiograbber 1.80.04
#
DISCID=100ea914
DTITLE=David Gates - The David Gates Songbook (A Lifetime Of Music)
DYEAR=2002
DGENRE=Country
TTITLE0=Make It With You
TTITLE1=Find Me
TTITLE2=Baby I'm - A Want You
TTITLE3=I Can't Play The Songs
TTITLE4=If
TTITLE5=Love Is Always Seventeen
TTITLE6=It Don't Matter To Me
TTITLE7=The Mustang
TTITLE8=Everything I Own
TTITLE9=Mirror, Mirror
TTITLE10=Lost Without Your Love
TTITLE11=This Could Be Forever
TTITLE12=Aubrey
TTITLE13=Sail Around The World
TTITLE14=Part-Time Love
TTITLE15=Sweet Surrender
TTITLE16=Goodbye Girl
TTITLE17=Never Let Her Go
TTITLE18=Diary
TTITLE19=The Guitar Man
EXTD=
EXTT0=
EXTT1=
EXTT2=
EXTT3=
EXTT4=
EXTT5=
EXTT6=
EXTT7=
EXTT8=
EXTT9=
EXTT10=
EXTT11=
EXTT12=
EXTT13=
EXTT14=
EXTT15=
EXTT16=
EXTT17=
EXTT18=
EXTT19=
PLAYORDER=
